<?xml version="1.0" encoding="UTF-8" standalone="no"?>
<svg
   xmlns:dc="http://purl.org/dc/elements/1.1/"
   xmlns:cc="http://creativecommons.org/ns#"
   xmlns:rdf="http://www.w3.org/1999/02/22-rdf-syntax-ns#"
   xmlns:svg="http://www.w3.org/2000/svg"
   xmlns="http://www.w3.org/2000/svg"
   xmlns:sodipodi="http://sodipodi.sourceforge.net/DTD/sodipodi-0.dtd"
   xmlns:inkscape="http://www.inkscape.org/namespaces/inkscape"
   version="1.1"
   id="Layer_1"
   x="0px"
   y="0px"
   viewBox="0 0 110 308"
   xml:space="preserve"
   inkscape:version="0.91 r13725"
   sodipodi:docname="tripleo-owl.svg"
   width="110"
   height="308"><metadata
     id="metadata63"><rdf:RDF><cc:Work
         rdf:about=""><dc:format>image/svg+xml</dc:format><dc:type
           rdf:resource="http://purl.org/dc/dcmitype/StillImage" /><dc:title></dc:title></cc:Work></rdf:RDF></metadata><sodipodi:namedview
     pagecolor="#ffffff"
     bordercolor="#666666"
     borderopacity="1"
     objecttolerance="10"
     gridtolerance="10"
     guidetolerance="10"
     inkscape:pageopacity="0"
     inkscape:pageshadow="2"
     inkscape:window-width="2560"
     inkscape:window-height="1016"
     id="namedview61"
     showgrid="false"
     inkscape:zoom="0.79153439"
     inkscape:cx="543.34"
     inkscape:cy="-19.28804"
     inkscape:window-x="0"
     inkscape:window-y="27"
     inkscape:window-maximized="1"
     inkscape:current-layer="Layer_1" /><defs
     id="defs3"><style
       type="text/css"
       id="style5">
			.filtered{
				filter: url(#filter);
			}
			.st0{fill:#E6E6E6;}
			.st1{fill:#CCCCCC;}
			.st2{fill:#B3B3B3;}
			.st3{fill:#808080;}
			.st4{fill:#F2F2F2;}
			.st5{fill:none;stroke:#808080;stroke-width:7;stroke-miterlimit:10;}
			.st6{fill:#535353;}
		</style><filter
       id="filter"><feGaussianBlur
         in="SourceAlpha"
         result="blurOut"
         stdDeviation="3"
         id="feGaussianBlur8" /><feOffset
         in="blurOut"
         result="dropBlur"
         dx="3"
         dy="3"
         id="feOffset10" /><feComposite
         operator="over"
         in="SourceGraphic"
         in2="dropBlur"
         result="final"
         id="feComposite12" /></filter></defs><g
     id="Owl"
     class="filtered"
     transform="matrix(0,-0.31501063,0.31501063,0,6.1566252,305.18604)"
     style="filter:url(#filter)"><path
       class="st0"
       d="m 798.8,276 c -73.9,0 -134,-60.1 -134,-134 0,-73.9 60.1,-134 134,-134 73.9,0 134,60.1 134,134 0,73.9 -60.1,134 -134,134 z"
       id="path15"
       inkscape:connector-curvature="0"
       style="fill:#e6e6e6" /><path
       class="st1"
       d="M 798.8,13.8 C 869.5,13.8 927,71.3 927,142 927,212.7 869.5,270.2 798.8,270.2 728.1,270.2 670.6,212.7 670.6,142 670.6,71.3 728.1,13.8 798.8,13.8 m 0,-11.6 C 721.6,2.2 659,64.8 659,142 c 0,77.2 62.5,139.9 139.8,139.9 77.3,0 139.8,-62.6 139.8,-139.8 C 938.6,64.9 876,2.2 798.8,2.2 l 0,0 z"
       id="path17"
       inkscape:connector-curvature="0"
       style="fill:#cccccc" /><path
       class="st2"
       d="m 814.9,192.7 c 0,-0.7 0,-1.3 -0.1,-2 -0.9,8.6 -7.9,15.4 -16.4,15.4 -8.5,0 -15.5,-6.7 -16.4,-15.4 -0.1,0.7 -0.1,1.3 -0.1,2 0,9.6 7.4,17.3 16.5,17.3 9.1,0 16.5,-7.8 16.5,-17.3 z"
       id="path19"
       inkscape:connector-curvature="0"
       style="fill:#b3b3b3" /><path
       class="st2"
       d="m 773.1,192.7 c 0,-0.7 0,-1.3 -0.1,-2 -0.9,8.6 -7.9,15.4 -16.4,15.4 -8.5,0 -15.5,-6.7 -16.4,-15.4 -0.1,0.7 -0.1,1.3 -0.1,2 0,9.6 7.4,17.3 16.5,17.3 9.1,0 16.5,-7.8 16.5,-17.3 z"
       id="path21"
       inkscape:connector-curvature="0"
       style="fill:#b3b3b3" /><path
       class="st2"
       d="m 840.1,206 c -8.5,0 -15.5,-6.7 -16.4,-15.4 -0.1,0.7 -0.1,1.3 -0.1,2 0,9.6 7.4,17.3 16.5,17.3 9.1,0 16.5,-7.8 16.5,-17.3 0,-0.7 0,-1.3 -0.1,-2 -0.9,8.7 -7.9,15.4 -16.4,15.4 z"
       id="path23"
       inkscape:connector-curvature="0"
       style="fill:#b3b3b3" /><path
       class="st2"
       d="m 778.1,231.3 c -8.5,0 -15.5,-6.7 -16.4,-15.4 -0.1,0.7 -0.1,1.3 -0.1,2 0,9.6 7.4,17.3 16.5,17.3 9.1,0 16.5,-7.8 16.5,-17.3 0,-0.7 0,-1.3 -0.1,-2 -0.9,8.7 -7.9,15.4 -16.4,15.4 z"
       id="path25"
       inkscape:connector-curvature="0"
       style="fill:#b3b3b3" /><path
       class="st2"
       d="m 819.9,231.3 c -8.5,0 -15.5,-6.7 -16.4,-15.4 -0.1,0.7 -0.1,1.3 -0.1,2 0,9.6 7.4,17.3 16.5,17.3 9.1,0 16.5,-7.8 16.5,-17.3 0,-0.7 0,-1.3 -0.1,-2 -1,8.7 -8,15.4 -16.4,15.4 z"
       id="path27"
       inkscape:connector-curvature="0"
       style="fill:#b3b3b3" /><path
       class="st2"
       d="M 901,71.6 C 911.6,53.4 921.8,31.9 931.5,8.9 l -1.1,0 c -1.7,1 -3.4,2.5 -5.1,3.6 0.7,-1.6 1.4,-3.6 2,-4.6 l -1.1,0 c -3,1 -6,3.4 -9,5.2 1,-2.3 1.9,-4.2 2.9,-7.2 l -1,0 c -12.4,9 -25.7,16.4 -39.6,22.2 C 860.4,12.1 830.6,2 797,2 763.6,2 734,12.2 714.9,28 700.8,22.1 687.4,14.9 674.9,6.3 c 1,2.4 1.9,4.8 2.9,7.2 -2.9,-1.7 -5.7,-3.5 -8.5,-5.3 0.9,2.2 1.9,4.4 2.8,6.6 -2.5,-1.5 -5,-3.1 -7.5,-4.7 9,21.7 18.4,41.1 28.2,58.3 0,0.4 0,0.8 0,1.2 0,21.3 15.3,40.3 39.2,52.7 21,21.5 43.2,32.9 66.1,32.9 23.7,0 46.5,-12.5 68.1,-35.4 C 886.7,107.9 900,90.7 901,71.6 Z"
       id="path29"
       inkscape:connector-curvature="0"
       style="fill:#b3b3b3" /><path
       class="st3"
       d="m 809.5,100.9 0,-40 5.9,0 c 0,0 0,-0.3 -0.1,-0.6 l 6.4,0.9 c 0,0 -0.2,-1 -0.1,-1.7 -1.9,-9.9 -2.9,-21.4 -3.4,-38.8 l 0,0.1 C 815.8,29.3 812.9,36.4 810,42.7 806.9,31.4 804,19 800.9,2 l 0,0 c -3.1,18 -6.1,30.6 -9.4,41.8 -3.1,-6.5 -6,-14 -8.7,-23 l 0,0 c -0.5,17.4 -1.3,28.9 -3.4,38.9 0.1,0.7 -0.1,1.9 -0.1,1.9 l 7,-1.1 c 0,0.4 0,0.7 -0.1,0.7 l 2.8,0 0,40 -41.3,0 c 0.2,3 0.5,2.6 0.7,3.8 18.9,16.3 33.6,36.2 49.8,65.2 l 0,0 c 16.1,-28 30.8,-48.6 49.4,-64.9 0.2,-1.3 0.6,-1.1 0.8,-4.1 l -39,0 0.1,-0.3 0,0 z"
       id="path31"
       inkscape:connector-curvature="0"
       style="fill:#808080" /><path
       class="st3"
       d="m 658.9,142.1 c 0,42.8 19.7,81.6 51.8,110.1 C 721,224.9 727,192.4 727,157.6 727,113 717.2,72.3 701,41.2 674.7,68.7 658.9,103.8 658.9,142.1 Z"
       id="path33"
       inkscape:connector-curvature="0"
       style="fill:#808080" /><path
       class="st3"
       d="m 899.9,41.6 c -15.8,31 -25.4,71.3 -25.4,115.5 0,34.4 5.8,66.6 15.9,93.7 31.3,-28.5 50.6,-66.9 50.6,-109.3 0,-37.8 -15.4,-72.6 -41.1,-99.9 z"
       id="path35"
       inkscape:connector-curvature="0"
       style="fill:#808080" /><path
       class="st4"
       d="m 740.9,30.8 c -31.9,1.4 -57.9,26.7 -58,56.5 -0.1,29.8 22.2,54.4 49.9,54.9 27.6,0.5 53.6,-24.7 58,-56.5 C 795.2,54 772.9,29.4 740.9,30.8 Z"
       id="path37"
       inkscape:connector-curvature="0"
       style="fill:#f2f2f2" /><path
       class="st4"
       d="m 857.3,30.8 c -31.9,-1.4 -54.2,23.2 -49.9,54.9 4.4,31.7 30.3,57 58,56.5 27.6,-0.5 50,-25.1 49.9,-54.9 -0.1,-29.8 -26.1,-55.1 -58,-56.5 z"
       id="path39"
       inkscape:connector-curvature="0"
       style="fill:#f2f2f2" /><path
       class="st5"
       d="m 741.9,28.8 c -31.9,1.4 -57.9,26.7 -58,56.5 -0.1,29.8 22.2,54.4 49.9,54.9 27.6,0.5 53.6,-24.7 58,-56.5 C 796.2,52 773.9,27.4 741.9,28.8 Z"
       id="path41"
       inkscape:connector-curvature="0"
       style="fill:none;stroke:#808080;stroke-width:7;stroke-miterlimit:10" /><path
       class="st5"
       d="m 858.3,28.8 c -31.9,-1.4 -54.2,23.2 -49.9,54.9 4.4,31.7 30.3,57 58,56.5 27.6,-0.5 50,-25.1 49.9,-54.9 -0.1,-29.8 -26.1,-55.1 -58,-56.5 z"
       id="path43"
       inkscape:connector-curvature="0"
       style="fill:none;stroke:#808080;stroke-width:7;stroke-miterlimit:10" /><path
       style="fill:#535353"
       d="M 763.3,88.400002 A 18.799999,18.799999 0 0 1 744.5,107.2 18.799999,18.799999 0 0 1 725.7,88.400002 a 18.799999,18.799999 0 0 1 18.8,-18.8 18.799999,18.799999 0 0 1 18.8,18.8 z"
       id="circle45"
       inkscape:connector-curvature="0" /><path
       style="fill:#535353"
       d="m 873.09999,88.400002 a 18.799999,18.799999 0 0 1 -18.8,18.799998 18.799999,18.799999 0 0 1 -18.8,-18.799998 18.799999,18.799999 0 0 1 18.8,-18.8 18.799999,18.799999 0 0 1 18.8,18.8 z"
       id="circle47"
       inkscape:connector-curvature="0" /><path
       class="st3"
       d="m 109.6,75.9 0,168 -42,0 0,-168 -64.6,0 0,-32.4 171.5,0 0,32.4 -64.9,0 z"
       id="path49"
       inkscape:connector-curvature="0"
       style="fill:#808080" /><path
       class="st3"
       d="m 135,243.9 0,-117.8 c 0,-8.4 -0.1,-15.5 -0.4,-21.1 -0.2,-5.6 -0.5,-10.6 -0.8,-15 l 38.1,0 c 0.3,1.7 0.7,6.9 1.1,15.6 0.5,8.7 0.7,14.4 0.7,17.3 l 0.6,0 c 3.9,-10.8 7.3,-18.4 10.4,-22.8 3,-4.4 6.6,-7.7 10.8,-9.8 4.2,-2.1 9.4,-3.2 15.6,-3.2 5.1,0 9.2,0.7 12.4,2.1 l 0,33.4 c -6.4,-1.4 -12.1,-2.1 -17.1,-2.1 -10,0 -17.7,4 -23.3,12.1 -5.5,8.1 -8.3,20 -8.3,35.8 l 0,75.5 -39.8,0 z"
       id="path51"
       inkscape:connector-curvature="0"
       style="fill:#808080" /><path
       class="st3"
       d="m 234.9,62.2 0,-29.4 40,0 0,29.4 -40,0 z m 0,181.7 0,-153.9 40,0 0,153.9 -40,0 z"
       id="path53"
       inkscape:connector-curvature="0"
       style="fill:#808080" /><path
       class="st3"
       d="m 433.5,166.2 c 0,25.7 -5.1,45.5 -15.4,59.5 -10.3,14 -24.8,21 -43.6,21 -10.8,0 -20.2,-2.3 -28.2,-7 -8,-4.7 -14.2,-11.4 -18.4,-20.3 l -0.9,0 c 0.6,2.8 0.9,11.5 0.9,25.9 l 0,59 -40,0 0,-178.9 c 0,-14.5 -0.4,-26.3 -1.1,-35.4 l 38.8,0 c 0.5,1.7 0.9,5.1 1.2,10.1 0.3,5 0.5,10 0.5,14.9 l 0.6,0 c 9,-18.9 25.4,-28.3 49.2,-28.3 17.9,0 31.8,6.9 41.7,20.7 9.8,13.8 14.7,33.4 14.7,58.8 z m -41.6,0 c 0,-34.5 -10.6,-51.8 -31.7,-51.8 -10.6,0 -18.8,4.6 -24.4,13.9 -5.6,9.3 -8.5,22.3 -8.5,39 0,16.6 2.8,29.4 8.5,38.5 5.6,9.1 13.7,13.6 24.1,13.6 21.3,0 32,-17.7 32,-53.2 z"
       id="path55"
       inkscape:connector-curvature="0"
       style="fill:#808080" /><path
       class="st3"
       d="m 445.2,243.9 0,-211.1 40,0 0,211.1 -40,0 z"
       id="path57"
       inkscape:connector-curvature="0"
       style="fill:#808080" /><path
       class="st3"
       d="m 568.4,246.7 c -23.1,0 -40.9,-6.8 -53.3,-20.6 -12.4,-13.7 -18.6,-33.7 -18.6,-59.9 0,-25.4 6.3,-44.9 18.9,-58.6 12.6,-13.7 30.5,-20.5 53.6,-20.5 22.1,0 39,7.3 50.6,22 11.7,14.6 17.5,36.1 17.5,64.4 l 0,1.1 -98.7,0 c 0,15 2.8,26.3 8.3,33.9 5.5,7.6 13.4,11.4 23.7,11.4 14.1,0 23,-6.1 26.7,-18.3 l 37.7,3.3 c -10.9,27.9 -33,41.8 -66.4,41.8 z m 0,-134.4 c -9.4,0 -16.6,3.3 -21.7,9.8 -5.1,6.5 -7.8,15.7 -8,27.5 l 59.7,0 c -0.8,-12.4 -3.7,-21.7 -9,-27.9 -5.2,-6.3 -12.2,-9.4 -21,-9.4 z"
       id="path59"
       inkscape:connector-curvature="0"
       style="fill:#808080" /></g></svg>